HIERARCHY
ROOT Hips
{
	OFFSET 62.890800 8.863803 43.568401
	CHANNELS 6 Xposition Yposition Zposition Zrotation Xrotation Yrotation
	JOINT Chest
	{
		OFFSET -0.160400 1.630001 7.806301
		CHANNELS 6 Xposition Yposition Zposition Zrotation Xrotation Yrotation
		JOINT Chest2
		{
			OFFSET 0.000000 0.000000 3.197998
			CHANNELS 6 Xposition Yposition Zposition Zrotation Xrotation Yrotation
			JOINT Neck
			{
				OFFSET 0.000000 0.000001 7.440701
				CHANNELS 6 Xposition Yposition Zposition Zrotation Xrotation Yrotation
				JOINT Head
				{
					OFFSET 0.000000 0.000000 2.173901
					CHANNELS 6 Xposition Yposition Zposition Zrotation Xrotation Yrotation
					End Site
					{
						OFFSET 0.000000 0.000001 10.420303
					}
				}
			}
			JOINT LeftCollar
			{
				OFFSET 2.426399 -1.880099 4.759399
				CHANNELS 6 Xposition Yposition Zposition Zrotation Xrotation Yrotation
				JOINT LeftShoulder
				{
					OFFSET 4.420197 0.000000 0.000000
					CHANNELS 6 Xposition Yposition Zposition Zrotation Xrotation Yrotation
					JOINT LeftElbow
					{
						OFFSET 0.000000 -0.000001 -10.347099
						CHANNELS 6 Xposition Yposition Zposition Zrotation Xrotation Yrotation
						JOINT LeftWrist
						{
							OFFSET 0.000000 -0.000001 -12.496300
							CHANNELS 6 Xposition Yposition Zposition Zrotation Xrotation Yrotation
							End Site
							{
								OFFSET 0.000000 0.000000 -2.173901
							}
						}
					}
				}
			}
			JOINT RightCollar
			{
				OFFSET -2.781502 -1.903799 5.072601
				CHANNELS 6 Xposition Yposition Zposition Zrotation Xrotation Yrotation
				JOINT RightShoulder
				{
					OFFSET -4.012100 0.000000 0.000000
					CHANNELS 6 Xposition Yposition Zposition Zrotation Xrotation Yrotation
					JOINT RightElbow
					{
						OFFSET 0.000000 -0.000001 -10.346600
						CHANNELS 6 Xposition Yposition Zposition Zrotation Xrotation Yrotation
						JOINT RightWrist
						{
							OFFSET 0.000000 -0.000001 -12.562599
							CHANNELS 6 Xposition Yposition Zposition Zrotation Xrotation Yrotation
							End Site
							{
								OFFSET 0.000000 0.000000 -2.173901
							}
						}
					}
				}
			}
		}
	}
	JOINT LeftHip
	{
		OFFSET 2.047997 -0.047200 -2.693199
		CHANNELS 6 Xposition Yposition Zposition Zrotation Xrotation Yrotation
		JOINT LeftKnee
		{
			OFFSET 0.000000 -0.000001 -18.824400
			CHANNELS 6 Xposition Yposition Zposition Zrotation Xrotation Yrotation
			JOINT LeftAnkle
			{
				OFFSET 0.000000 -0.000002 -19.078199
				CHANNELS 6 Xposition Yposition Zposition Zrotation Xrotation Yrotation
				End Site
				{
					OFFSET 0.000000 -9.342100 0.000001
				}
			}
		}
	}
	JOINT RightHip
	{
		OFFSET -2.129898 -0.022300 -2.538300
		CHANNELS 6 Xposition Yposition Zposition Zrotation Xrotation Yrotation
		JOINT RightKnee
		{
			OFFSET 0.000000 -0.000001 -18.644600
			CHANNELS 6 Xposition Yposition Zposition Zrotation Xrotation Yrotation
			JOINT RightAnkle
			{
				OFFSET 0.000000 -0.000002 -18.801399
				CHANNELS 6 Xposition Yposition Zposition Zrotation Xrotation Yrotation
				End Site
				{
					OFFSET 0.000000 -8.914600 0.000001
				}
			}
		}
	}
}
MOTION
Frames: 6
Frame Time: 0.041667
-12.798805 -50.202095 37.701157 -317.641936 10.679286 -7.293326 -0.160396 1.630008 7.806304 55.539745 -7.710091 23.722324 0.000004 -0.000001 3.198005 -9.172585 9.280432 -0.437032 -0.000014 0.000001 7.440699 -3.961887 9.930512 0.436984 0.000005 0.000002 2.173897 -0.802078 -13.410924 1.549276 2.426390 -1.880101 4.759398 -193.752454 164.631437 -180.741832 4.420193 0.000000 0.000003 -12.306262 13.060174 -18.028190 0.000009 -0.000006 -10.347102 325.247598 -18.556943 -0.343980 -0.000001 0.000001 -12.496302 -9.594434 165.053871 230.078638 -2.781509 -1.903797 5.072596 -151.878463 -211.782487 204.099125 -4.012103 -0.000003 -0.000006 19.491137 -40.503718 521.365551 0.000005 -0.000000 -10.346587 -87.559146 2.237135 -0.044701 -0.000003 -0.000004 -12.562601 1321.631332 -167.710678 211.916468 2.048003 -0.047195 -2.693201 -241.821536 -11.506033 63.118523 0.000000 -0.000001 -18.824404 100.024972 130.380101 -173.494113 -0.000009 -0.000003 -19.078197 298.915607 26.568355 16.444753 -2.129896 -0.022298 -2.538301 -656.722853 34.436574 3.731642 0.000007 -0.000003 -18.644598 517.880680 154.669087 148.606051 -0.000006 -0.000004 -18.801395 -54.320812 -8.788888 -78.740053
-12.901711 -50.151791 37.621857 -317.406267 10.723001 -7.629915 -0.160403 1.630005 7.806296 55.997678 -5.838211 23.217777 -0.000006 0.000000 3.198004 -9.524453 8.308976 -0.426620 -0.000003 0.000001 7.440695 -4.382367 8.493228 0.752319 -0.000006 0.000001 2.173903 -0.763641 -12.116634 1.313858 2.426410 -1.880096 4.759385 -190.981365 166.426561 -180.401893 4.420201 -0.000001 0.000000 -14.225412 15.232891 -19.046676 0.000000 0.000002 -10.347102 324.432674 -19.389877 -0.668858 0.000000 0.000003 -12.496295 -10.236887 165.089210 229.621971 -2.781501 -1.903798 5.072592 -155.246839 -209.356117 203.705543 -4.012104 0.000003 -0.000002 26.720863 -39.142407 525.046696 0.000009 0.000004 -10.346587 -88.803258 3.190994 -0.340893 0.000002 0.000001 -12.562596 1325.843100 -167.534199 212.977442 2.047988 -0.047202 -2.693199 -242.086766 -11.413467 63.250537 0.000005 -0.000004 -18.824400 99.845064 130.314354 -173.183927 -0.000001 -0.000003 -19.078196 299.139527 26.618376 16.364061 -2.129904 -0.022299 -2.538298 -655.462601 34.813570 3.520127 0.000005 -0.000007 -18.644600 518.644568 154.974984 147.330882 -0.000002 -0.000003 -18.801390 -55.520412 -9.204153 -79.372023
-13.011108 -50.098198 37.540356 -317.187592 10.734212 -7.951068 -0.160393 1.630002 7.806301 56.509130 -3.835267 22.557431 -0.000004 0.000000 3.198004 -9.941416 7.164315 -0.400210 -0.000007 -0.000001 7.440700 -4.862548 7.014511 1.201418 -0.000012 0.000002 2.173906 -0.737513 -10.736932 0.980423 2.426399 -1.880102 4.759400 -188.176793 168.165459 -179.716853 4.420202 -0.000004 0.000004 -16.265867 17.486594 -20.259425 0.000007 -0.000001 -10.347094 323.778725 -20.235231 -0.960364 0.000002 -0.000001 -12.496301 -10.899491 165.119919 229.141044 -2.781504 -1.903804 5.072601 -157.962618 -206.403577 204.450033 -4.012099 0.000004 -0.000000 32.326107 -37.898783 526.455572 -0.000001 0.000001 -10.346601 -90.565836 4.591493 -0.920459 -0.000002 -0.000001 -12.562608 1330.919296 -167.574211 214.358575 2.047994 -0.047198 -2.693203 -242.338827 -11.344370 63.350640 -0.000009 0.000004 -18.824404 100.785868 130.283536 -173.643626 -0.000008 -0.000004 -19.078201 298.438395 26.638332 16.933419 -2.129898 -0.022299 -2.538301 -654.152570 35.199697 3.261141 0.000000 -0.000003 -18.644600 519.367639 155.345973 146.029376 0.000003 -0.000008 -18.801399 -56.748002 -9.609116 -79.943020
-13.126617 -50.041599 37.456352 -316.978233 10.716489 -8.250814 -0.160395 1.630004 7.806308 57.123874 -1.724186 21.673597 0.000004 -0.000001 3.197999 -10.467073 5.905724 -0.312824 -0.000005 0.000000 7.440695 -5.381234 5.519815 1.793677 -0.000008 0.000000 2.173911 -0.746885 -9.353328 0.605396 2.426412 -1.880101 4.759398 -185.524590 169.753628 -178.736420 4.420200 -0.000002 -0.000008 -18.255289 19.688193 -21.587506 0.000006 0.000000 -10.347107 323.327140 -21.085807 -1.200280 -0.000010 0.000006 -12.496301 -11.601109 165.143073 228.627250 -2.781497 -1.903800 5.072598 -160.265307 -202.548413 203.739038 -4.012103 -0.000001 0.000002 38.628210 -35.425592 528.680138 -0.000004 -0.000000 -10.346601 -92.702244 6.775744 -1.628392 -0.000002 0.000001 -12.562612 1336.961773 -167.843102 216.110027 2.047991 -0.047196 -2.693201 -242.271181 -10.931515 63.508595 -0.000007 0.000007 -18.824402 102.308003 130.252500 -174.695175 -0.000009 -0.000001 -19.078197 296.787320 26.670960 18.155305 -2.129892 -0.022302 -2.538300 -650.942983 35.938154 1.801067 0.000001 0.000001 -18.644596 519.513368 156.765231 144.338303 -0.000000 -0.000005 -18.801401 -59.075536 -10.065028 -80.888284
-13.247719 -49.982597 37.370056 -316.781442 10.674107 -8.526120 -0.160399 1.630009 7.806305 57.845002 0.136277 20.853592 -0.000004 0.000000 3.197997 -10.941559 4.878312 -0.366587 -0.000015 0.000000 7.440701 -5.811984 4.103659 2.396344 -0.000005 0.000003 2.173905 -0.888236 -8.031560 0.292614 2.426393 -1.880101 4.759398 -183.185305 171.063877 -177.581640 4.420199 0.000000 -0.000006 -20.036242 21.718525 -22.953443 0.000008 0.000002 -10.347093 323.099968 -21.933927 -1.373033 -0.000003 0.000003 -12.496286 -12.361305 165.156515 228.080493 -2.781515 -1.903803 5.072600 -162.705925 -198.729477 202.933144 -4.012099 -0.000003 0.000005 44.814490 -33.103304 530.521721 0.000001 -0.000003 -10.346591 -94.694754 9.232272 -2.283691 -0.000006 -0.000004 -12.562605 1342.948625 -168.259429 217.858159 2.047990 -0.047200 -2.693202 -242.642525 -11.079149 63.530615 0.000000 -0.000001 -18.824402 105.183930 130.391153 -176.403145 0.000001 -0.000001 -19.078199 294.662420 26.587285 19.815960 -2.129901 -0.022297 -2.538295 -650.266138 36.171746 1.896367 -0.000001 -0.000005 -18.644596 520.366267 156.885224 143.146913 -0.000003 -0.000003 -18.801399 -59.899250 -10.426279 -81.189912
-13.373810 -49.922092 37.281158 -316.597655 10.609919 -8.775855 -0.160408 1.630005 7.806300 58.681618 1.888256 19.889096 0.000006 -0.000002 3.197994 -11.451584 3.844407 -0.313661 -0.000007 -0.000002 7.440707 -6.358358 2.912890 3.112436 0.000001 0.000001 2.173906 -0.967518 -6.851142 -0.103013 2.426393 -1.880102 4.759402 -181.300213 171.972210 -176.430534 4.420193 -0.000000 0.000000 -21.477562 23.473099 -24.284647 0.000007 0.000005 -10.347096 323.113573 -22.773049 -1.461875 0.000002 0.000001 -12.496293 -13.198550 165.160750 227.503779 -2.781508 -1.903802 5.072607 -165.037246 -195.301691 201.992217 -4.012105 -0.000001 -0.000007 50.365798 -30.962491 531.664056 -0.000000 -0.000005 -10.346583 -96.133021 11.413013 -2.786591 -0.000006 0.000005 -12.562597 1348.168201 -168.743293 219.418666 2.047986 -0.047199 -2.693203 -243.005563 -11.258458 63.536544 0.000000 -0.000005 -18.824402 108.569777 130.610921 -178.456013 0.000008 -0.000004 -19.078196 292.095717 26.426239 21.834032 -2.129908 -0.022301 -2.538297 -649.635684 36.379964 2.010951 -0.000002 0.000000 -18.644596 521.225724 156.998277 141.943052 0.000005 -0.000006 -18.801401 -60.681825 -10.783947 -81.449582
